HIERARCHY
ROOT root
{
	OFFSET	0	13.1	24.9
	CHANNELS 6  Xposition Yposition Zposition Xrotation Yrotation Zrotation
	JOINT spine_1
	{
		OFFSET	0	9.99999	0
		CHANNELS 3  Xrotation Yrotation Zrotation
		JOINT spine_2
		{
			OFFSET	0	112	-10
			CHANNELS 3  Xrotation Yrotation Zrotation
			JOINT spine_3
			{
				OFFSET	0	206.5	19.3
				CHANNELS 3  Xrotation Yrotation Zrotation
				JOINT spine_4
				{
					OFFSET	0	110.4	14.6
					CHANNELS 3  Xrotation Yrotation Zrotation
					JOINT neck_1
					{
						OFFSET	0	71.8	-50.3
						CHANNELS 3  Xrotation Yrotation Zrotation
						JOINT neck_2
						{
							OFFSET	0	86.2	-25.8
							CHANNELS 3  Xrotation Yrotation Zrotation
							JOINT head_ee
							{
								OFFSET	0	179.8	-8.7
								CHANNELS 3  Xrotation Yrotation Zrotation
								End Site
								{
									OFFSET	1	0	0
								}
							}
						}
					}
					JOINT left_clavicle
					{
						OFFSET	-43.2	22.4	-70.8
						CHANNELS 3  Xrotation Yrotation Zrotation
						JOINT left_shoulder
						{
							OFFSET	-93.9	-5.79999	48.7
							CHANNELS 3  Xrotation Yrotation Zrotation
							JOINT left_elbow
							{
								OFFSET	-291.4	-30.8	15.2
								CHANNELS 3  Xrotation Yrotation Zrotation
								JOINT left_lowarm_twist
								{
									OFFSET	-110.7	-3.89999	13.6
									CHANNELS 3  Xrotation Yrotation Zrotation
									JOINT left_hand
									{
										OFFSET	-110.7	-3.89999	13.6
										CHANNELS 3  Xrotation Yrotation Zrotation
										JOINT left_ee
										{
											OFFSET	-80.8	-5.10001	12.1
											CHANNELS 3  Xrotation Yrotation Zrotation
											End Site
											{
												OFFSET	1	0	0
											}
										}
									}
								}
							}
						}
					}
					JOINT right_clavicle
					{
						OFFSET	43.2	22.4	-70.8
						CHANNELS 3  Xrotation Yrotation Zrotation
						JOINT right_shoulder
						{
							OFFSET	93.9	-5.79999	48.7
							CHANNELS 3  Xrotation Yrotation Zrotation
							JOINT right_elbow
							{
								OFFSET	291.4	-30.8	15.2
								CHANNELS 3  Xrotation Yrotation Zrotation
								JOINT right_lowarm_twist
								{
									OFFSET	110.7	-3.89999	13.6
									CHANNELS 3  Xrotation Yrotation Zrotation
									JOINT right_hand
									{
										OFFSET	110.7	-3.89999	13.6
										CHANNELS 3  Xrotation Yrotation Zrotation
										JOINT right_ee
										{
											OFFSET	80.8	-5.10001	12.1
											CHANNELS 3  Xrotation Yrotation Zrotation
											End Site
											{
												OFFSET	1	0	0
											}
										}
									}
								}
							}
						}
					}
				}
			}
		}
	}
	JOINT left_hip
	{
		OFFSET	-82.8	-127.5	0.300001
		CHANNELS 3  Xrotation Yrotation Zrotation
		JOINT left_knee
		{
			OFFSET	-28.2	-396.7	2.2
			CHANNELS 3  Xrotation Yrotation Zrotation
			JOINT left_ankle
			{
				OFFSET	-11.7	-411.3	35.4
				CHANNELS 3  Xrotation Yrotation Zrotation
				JOINT left_toes
				{
					OFFSET	0	-60	-88.6
					CHANNELS 3  Xrotation Yrotation Zrotation
					JOINT left_foot_ee
					{
						OFFSET	-22.5	-16.5	-42.2
						CHANNELS 3  Xrotation Yrotation Zrotation
						End Site
						{
							OFFSET	1	0	0
						}
					}
				}
			}
		}
	}
	JOINT right_hip
	{
		OFFSET	82.8	-127.5	0.300001
		CHANNELS 3  Xrotation Yrotation Zrotation
		JOINT right_knee
		{
			OFFSET	28.2	-396.7	2.2
			CHANNELS 3  Xrotation Yrotation Zrotation
			JOINT right_ankle
			{
				OFFSET	11.7	-411.3	35.4
				CHANNELS 3  Xrotation Yrotation Zrotation
				JOINT right_toes
				{
					OFFSET	0	-60	-88.6
					CHANNELS 3  Xrotation Yrotation Zrotation
					JOINT right_foot_ee
					{
						OFFSET	22.5	-16.5	-42.2
						CHANNELS 3  Xrotation Yrotation Zrotation
						End Site
						{
							OFFSET	1	0	0
						}
					}
				}
			}
		}
	}
}
MOTION
Frames: 13
Frame Time: 0.02
1372.05 701.618 -1475.22 16.0197824875 63.399132793 -15.7396934265 -4.30531 -0.345727 -0.173131 -4.30536 -0.334009 -0.19478 -4.30421 -0.265248 -0.281327 -4.30419 -0.306349 -0.235906 -9.32171 20.0034 -1.44956 -9.77445 38.6008 3.67978 -0.0 0.0 -0.0 4.70926 10.7164 9.3393 19.5015 -28.3754 53.7888 6.6376 -73.0486 4.91841 36.6047 -0.184544 -4.59382 -0.672382 6.22268 -1.79462 -0.0 0.0 -0.0 6.12538 12.885 -11.3851 -16.5566 13.4917 -60.8027 0.18875 5.34183 -0.00880519 21.9525 -0.24427 2.77649 5.29184 15.0389 -30.3851 0.0 0.0 0.0 -30.2914 -7.87301 14.6483 -2.25032 0.0860919 0.334595 16.4965 27.7564 -2.43898 -1.4046 0.0 0.0 -0.0 0.0 -0.0 27.3163 33.4243 -10.43 -3.50601 -0.128392 -0.52266 15.8147 -19.221 2.24594 7.29853 -0.0 -0.0 0.0 0.0 0.0 
1273.05708651 706.147 -1490.60269091 23.3439486569 68.3559643493 -24.3102729944 -4.79512 -0.150554 -0.196182 -4.79511 -0.137766 -0.205364 -4.79456 -0.0720046 -0.236578 -4.79462 -0.108464 -0.222238 -6.10788 18.4601 -5.94175 -5.76657 38.485 -2.50447 -0.0 0.0 -0.0 3.7426 10.0666 7.64995 12.6841 -30.8217 57.6906 5.62799 -70.2389 3.95988 36.2829 -0.170175 -4.55526 -0.636827 6.70892 -1.35268 -0.0 0.0 -0.0 7.40956 15.1926 -14.006 -14.3876 16.2744 -59.9488 0.310015 8.73103 -0.0236667 19.7469 -0.268072 2.49578 5.08972 11.2947 -30.9241 0.0 0.0 0.0 -30.7645 -7.83899 13.3111 -6.4121 0.210401 0.961064 7.84118 27.8164 -1.19303 -2.10966 0.0 0.0 -0.0 0.0 -0.0 23.4686 33.7844 -8.71775 -14.9745 -0.321638 -2.26897 6.92243 -21.9654 1.02388 6.03175 -0.0 -0.0 0.0 0.0 0.0 
1250.31768171 706.796 -1500.55976489 23.4910186128 69.0325736472 -23.9687333991 -4.88566 0.0523183 -0.177376 -4.88564 0.0634991 -0.173688 -4.88582 0.111554 -0.147497 -4.88584 0.0868595 -0.163264 -5.14629 18.5192 -5.61283 -4.6356 38.2678 -2.54254 -0.0 0.0 -0.0 2.73394 9.21767 5.85601 10.4195 -31.2702 58.3629 5.22559 -68.8518 3.58283 35.6131 -0.140965 -4.47477 -0.559564 6.51156 -0.933839 -0.0 0.0 -0.0 8.17928 16.4207 -15.6079 -13.3095 17.3814 -59.7452 0.324839 9.14163 -0.0259695 19.0302 -0.273478 2.4044 5.08644 10.622 -31.2611 0.0 0.0 0.0 -26.4606 -7.35065 11.8279 -16.8311 0.319906 2.55382 9.05792 25.2791 -1.35299 -2.25337 0.0 0.0 -0.0 0.0 -0.0 23.1122 33.0612 -10.1434 -16.7134 -0.32029 -2.53576 5.18948 -22.2037 0.772077 3.30543 -0.0 -0.0 0.0 0.0 0.0 
1250.51919231 706.796 -1501.50923322 23.0349591952 68.6216766907 -23.4796624934 -4.88566 0.0523183 -0.177376 -4.88564 0.0634991 -0.173688 -4.88582 0.111554 -0.147497 -4.88584 0.0868595 -0.163264 -5.14629 18.5192 -5.61283 -4.6356 38.2678 -2.54254 -0.0 0.0 -0.0 2.73394 9.21767 5.85601 10.4195 -31.2702 58.3629 5.22559 -68.8518 3.58283 35.6131 -0.140965 -4.47477 -0.559564 6.51156 -0.933839 -0.0 0.0 -0.0 8.17928 16.4207 -15.6079 -13.3095 17.3814 -59.7452 0.324839 9.14163 -0.0259695 19.0302 -0.273478 2.4044 5.08644 10.622 -31.2611 0.0 0.0 0.0 -26.4606 -7.35065 11.8279 -16.8311 0.319906 2.55382 9.05792 25.2791 -1.35299 -2.25337 0.0 0.0 -0.0 0.0 -0.0 23.1122 33.0612 -10.1434 -16.7134 -0.32029 -2.53576 5.18948 -22.2037 0.772077 3.30543 -0.0 -0.0 0.0 0.0 0.0 
1200.04009668 716.1 -1509.72381369 25.1266229072 68.6648928356 -25.77756703 -4.99291 0.461821 0.085366 -4.99302 0.455453 0.11458 -4.99222 0.401525 0.243607 -4.99204 0.434959 0.177136 -7.89198 17.8756 -4.18995 -7.96176 36.3166 -0.150996 -0.0 0.0 -0.0 1.87679 11.602 4.53552 5.9365 -31.358 59.5522 3.86045 -62.377 2.33748 37.0276 -0.203757 -4.64436 -0.535398 6.60134 -0.737812 -0.0 0.0 -0.0 9.64891 18.3601 -18.7311 -11.1761 21.0568 -56.4193 0.398586 11.1695 -0.0389747 18.5756 -0.276314 2.3464 5.15796 9.5222 -32.4129 0.0 0.0 0.0 -23.3983 -7.12465 12.449 -21.5408 0.274147 3.2748 0.196924 28.0114 -0.0305772 -1.94352 0.0 0.0 -0.0 0.0 -0.0 20.2583 32.4156 -11.875 -19.1921 -0.304377 -2.9157 1.92796 -22.7079 0.289869 3.66326 -0.0 -0.0 0.0 0.0 0.0 
1175.76303035 724.661 -1513.20402356 24.3913936036 68.8746194525 -25.0066032759 -4.9576 0.530566 0.0966578 -4.95775 0.52334 0.130224 -4.95671 0.46197 0.278258 -4.95647 0.500118 0.201806 -7.44517 17.9491 -3.62159 -7.45597 36.0185 0.268488 -0.0 0.0 -0.0 1.0355 12.2106 3.17233 3.14339 -31.4566 60.8846 3.41756 -59.4162 1.95038 37.3074 -0.21667 -4.67771 -0.538361 6.68889 -0.719658 -0.0 0.0 -0.0 10.6741 19.9614 -20.9208 -9.72843 22.7445 -54.5925 0.403795 11.3117 -0.03999 18.2557 -0.278034 2.30558 5.17816 9.22266 -32.7328 0.0 0.0 0.0 -21.4238 -7.60913 11.7675 -24.8594 0.206401 3.77947 -1.92064 27.5926 0.29876 -2.01428 0.0 0.0 -0.0 0.0 -0.0 18.5841 32.2197 -12.4437 -17.7967 -0.315357 -2.70189 1.50744 -21.0915 0.225333 2.84598 -0.0 -0.0 0.0 0.0 0.0 
1159.45396758 731.0 -1517.00647625 23.8625091841 68.5170056649 -24.2552102676 -4.93416 0.491286 0.281316 -4.93424 0.47239 0.312008 -4.9316 0.360048 0.436884 -4.93162 0.424526 0.374539 -7.52712 17.9994 -3.06319 -7.56703 35.7315 0.869278 -0.0 0.0 -0.0 0.753227 12.7205 2.75061 1.31874 -31.0554 61.1984 2.72166 -53.4257 1.36981 37.6241 -0.231489 -4.71541 -0.61641 7.49214 -0.882806 -0.0 0.0 -0.0 11.3295 21.1321 -22.3176 -8.73326 25.0882 -55.0155 0.406575 11.3876 -0.0405372 17.5756 -0.280932 2.21877 5.3052 9.30005 -33.7099 0.0 0.0 0.0 -17.4102 -7.91074 11.3023 -29.9692 0.0452434 4.54687 -3.62213 27.5342 0.565047 -2.70057 0.0 0.0 -0.0 0.0 -0.0 15.8745 32.2452 -12.4037 -16.0134 -0.321806 -2.42836 -0.398988 -21.4991 -0.0599975 2.04733 -0.0 -0.0 0.0 0.0 0.0 
1160.69777232 731.0 -1522.90037807 22.3322349516 67.0515598377 -22.6023817377 -4.93416 0.491286 0.281316 -4.93424 0.47239 0.312008 -4.9316 0.360048 0.436884 -4.93162 0.424526 0.374539 -7.52712 17.9994 -3.06319 -7.56703 35.7315 0.869278 -0.0 0.0 -0.0 0.753227 12.7205 2.75061 1.31874 -31.0554 61.1984 2.72166 -53.4257 1.36981 37.6241 -0.231489 -4.71541 -0.61641 7.49214 -0.882806 -0.0 0.0 -0.0 11.3295 21.1321 -22.3176 -8.73326 25.0882 -55.0155 0.406575 11.3876 -0.0405372 17.5756 -0.280932 2.21877 5.3052 9.30005 -33.7099 0.0 0.0 0.0 -17.4102 -7.91074 11.3023 -29.9692 0.0452434 4.54687 -3.62213 27.5342 0.565047 -2.70057 0.0 0.0 -0.0 0.0 -0.0 15.8745 32.2452 -12.4037 -16.0134 -0.321806 -2.42836 -0.398988 -21.4991 -0.0599975 2.04733 -0.0 -0.0 0.0 0.0 0.0 
1141.58554773 734.922 -1526.43094358 21.0594413642 67.1402417212 -21.373666857 -4.89914 0.518995 0.570218 -4.89908 0.48166 0.602087 -4.89355 0.28428 0.716718 -4.89405 0.393902 0.66283 -6.04923 18.065 -3.22112 -5.84177 35.7987 0.188736 -0.0 0.0 -0.0 0.520878 12.928 2.38677 0.0281552 -30.8111 61.7979 2.30568 -48.7901 1.04578 37.6663 -0.233477 -4.72042 -0.703515 8.55389 -0.989306 -0.0 0.0 -0.0 11.9239 21.9143 -23.6108 -8.32989 26.9698 -54.9319 0.409141 11.4575 -0.0410454 16.9248 -0.282742 2.13566 5.5487 9.47005 -35.5999 0.0 0.0 0.0 -14.8553 -8.09541 10.5642 -32.6631 -0.0671173 4.94495 -4.91502 26.7879 0.765123 -3.24545 0.0 0.0 -0.0 0.0 -0.0 13.8068 32.3078 -12.3695 -11.8913 -0.304128 -1.79629 -0.0766479 -19.0356 -0.0114143 1.74169 -0.0 -0.0 0.0 0.0 0.0 
1110.83037856 737.598 -1528.73700547 22.3710324113 68.5759694792 -22.6447031906 -4.83212 0.374674 0.8959 -4.83173 0.316909 0.917924 -4.82564 0.0354116 0.97044 -4.82691 0.188223 0.952671 -2.12858 17.7191 -4.74611 -1.21561 35.7918 -2.85811 -0.0 0.0 -0.0 0.421604 14.3788 2.37511 -0.958366 -29.4771 62.9166 1.8737 -42.8625 0.735531 37.2805 -0.215421 -4.67451 -0.727032 9.31649 -0.811445 -0.0 0.0 -0.0 12.3603 22.9617 -24.5203 -5.80273 29.2002 -53.6607 0.428137 11.9744 -0.0449027 16.9357 -0.282719 2.13705 5.69691 9.40797 -36.8647 0.0 0.0 0.0 -9.86553 -5.85701 8.58286 -41.4611 -0.562326 6.20159 -6.70511 26.1611 1.04315 -3.69026 0.0 0.0 -0.0 0.0 -0.0 9.44792 32.7279 -10.7634 -10.6402 -0.289773 -1.60487 2.09895 -16.6263 0.3088 1.23536 -0.0 -0.0 0.0 0.0 0.0 
1057.7012358 747.214 -1515.22757234 27.1508273479 72.1094812353 -28.1993125914 -4.88486 0.430492 1.3226 -4.88396 0.345467 1.34731 -4.87375 -0.0636761 1.38943 -4.87641 0.156536 1.38205 0.303028 17.5527 -5.25576 1.62178 35.5347 -4.26982 -0.0 0.0 -0.0 0.461348 15.5619 2.56136 -3.8351 -27.7543 63.9864 1.32254 -33.229 0.394647 36.8863 -0.197296 -4.62749 -0.674781 10.4043 -0.00837862 -0.0 0.0 -0.0 13.129 24.122 -26.1842 -4.81618 32.0191 -51.4068 0.668994 18.3353 -0.107967 15.9829 -0.283688 2.01536 6.09676 11.4973 -39.0072 0.0 0.0 0.0 -1.53353 -0.601755 5.24079 -54.1221 -1.5998 7.84686 -8.32576 21.2006 1.26855 -5.23624 0.0 0.0 -0.0 0.0 -0.0 -0.235006 33.224 -6.68278 -0.294805 -0.012027 -0.0436422 1.07987 -12.6042 0.158047 -0.16562 0.0 0.0 0.0 0.0 0.0 
1059.88068815 747.214 -1529.68165751 23.8599879897 69.7227988189 -24.7179634889 -4.88486 0.430492 1.3226 -4.88396 0.345467 1.34731 -4.87375 -0.0636761 1.38943 -4.87641 0.156536 1.38205 0.303028 17.5527 -5.25576 1.62178 35.5347 -4.26982 -0.0 0.0 -0.0 0.461348 15.5619 2.56136 -3.8351 -27.7543 63.9864 1.32254 -33.229 0.394647 36.8863 -0.197296 -4.62749 -0.674781 10.4043 -0.00837862 -0.0 0.0 -0.0 13.129 24.122 -26.1842 -4.81618 32.0191 -51.4068 0.668994 18.3353 -0.107967 15.9829 -0.283688 2.01536 6.09676 11.4973 -39.0072 0.0 0.0 0.0 -1.53353 -0.601755 5.24079 -54.1221 -1.5998 7.84686 -8.32576 21.2006 1.26855 -5.23624 0.0 0.0 -0.0 0.0 -0.0 -0.235006 33.224 -6.68278 -0.294805 -0.012027 -0.0436422 1.07987 -12.6042 0.158047 -0.16562 0.0 0.0 0.0 0.0 0.0 
1023.30166193 747.326 -1512.38581083 28.3836183331 70.7756967993 -30.4287796245 -4.62149 0.395057 1.63453 -4.62005 0.290262 1.65635 -4.6088 -0.199171 1.66975 -4.61268 0.0669948 1.68024 2.58146 17.1518 -6.3387 4.32223 35.3413 -6.2882 -0.0 0.0 -0.0 0.301169 17.7037 2.53429 -7.35297 -25.3302 64.856 1.01884 -26.7796 0.242535 37.2455 -0.2138 -4.67034 -0.58865 12.0359 1.23451 -0.0 0.0 -0.0 13.5002 24.7604 -26.9797 -2.73773 34.0661 -49.2984 0.971603 25.7012 -0.221651 15.7597 -0.283622 1.98685 6.40075 14.3104 -39.7915 0.0 0.0 0.0 6.96204 5.70942 2.06398 -62.5257 -2.4788 8.79768 -11.9069 18.6651 1.80655 -8.6148 0.0 0.0 -0.0 0.0 -0.0 -8.20394 33.4384 -2.97944 5.79716 0.281753 0.844359 2.56279 -8.87105 0.372654 -0.629288 0.0 0.0 0.0 0.0 0.0 
